/* XPM */
static char *c9254c72a7804ede88e111dd52aa9750[] = {
/* columns rows colors chars-per-pixel */
"50 50 33 1 ",
"  c black",
". c gray1",
"X c #060606",
"o c gray3",
"O c #0B0B0B",
"+ c gray5",
"@ c #101010",
"# c gray7",
"$ c #151515",
"% c gray10",
"& c gray12",
"* c #272727",
"= c #2C2C2C",
"- c gray18",
"; c #313131",
": c gray20",
"> c #393939",
", c gray25",
"< c #434343",
"1 c gray27",
"2 c #484848",
"3 c gray29",
"4 c #505050",
"5 c #5F5F5F",
"6 c gray38",
"7 c gray40",
"8 c #6C6C6C",
"9 c #717171",
"0 c gray45",
"q c #767676",
"w c gray47",
"e c gray49",
"r c None",
/* pixels */
"rrrrrrrrrrrrrrrrrrrrrrrrrrrrrrrrrrrrrrrrrrrrrrrrrr",
"rrrrrrrrrrrrrrrrrrrrrrrrrrrrrrrrrrrrrrrrrrrrrrrrrr",
"rrrrrrrrrrrrrrrrrrrrrrrrrrrrrrrrrrrrrrrrrrrrrrrrrr",
"rrrrrrrrrrrrrrrrrrrrrrrrrrrrrrrrrrrrrrrrrrrrrrrrrr",
"rrrrrrrrrrrrrrrrrrrrrrrrrrrrrrrrrrrrrrrrrrrrrrrrrr",
"rrrrrrrrrrrrrrrrrrrrrrrrrrrrrrrrrrrrrrrrrrrrrrrrrr",
"rrrrrrrrrrrrrrrrrrrrrrrrrrrrrrrrrrrrrrrrrrrrrrrrrr",
"rrrrrrrrrrrrrrrrrrrrrrrrrrrrrrrrrrrrrrrrrrrrrrrrrr",
"rrrrrrrrrrrrrrrrrrrrrrrrrrrrrrrrrrrrrrrrrrr:2rrrrr",
"rrrrrrrrrrrrrrrrrrrrrrrrrrrrrrrrrrrrrrr0%   rrrrrr",
"rrrrrrrrrrrrrrrrrrrrrrrrrrrrrrrrrrrr6$     %rrrrrr",
"rrrrrrrrrrrrrrrrrrrrrrrrrrrrrrrrr4o        rrrrrrr",
"rrrrrrrrrrrrrrrrrrrrrrrrrrrrrr,           +rrrrrrr",
"rrrrrrrrrrrrrrrrrrrrrrrrrrr-              7rrrrrrr",
"rrrrrrrrrrrrrrrrrrrrrrrrrrr+             Xrrrrrrrr",
"rrrrrrrrrrrrrrrrrrrrrrrrrrrro            2rrrrrrrr",
"rrrrrrrrrrrrrrrrrrrrrrrrrrrrr            rrrrrrrrr",
"rrrrrrrrrrrrrrrrrrrrrrrrrrrrr-          -rrrrrrrrr",
"rrrrrrrrrrrrrrrrrrrrrrrrrrrr1           rrrrrrrrrr",
"rrrrrrrrrrrrrrrrrrrrrrrrrrr,           $rrrrrrrrrr",
"rrrrrrrrrrrrrrrrrrrrrrrrrr:            errrrrrrrrr",
"rrrrrrrrrrrrrrrrrrrrrrrrr:            orrrrrrrrrrr",
"rrrrrrrrrrrrrrrrrrrrrrrr*      Xrr#   5rrrrrrrrrrr",
"rrrrrrrrrrrrrrrrrrrrrrr*      +rrrr   rrrrrrrrrrrr",
"rrrrrrrrrrrrrrrrrrrrrr%      orrrrr8 1rrrrrrrrrrrr",
"rrrrrrrrrrrrrrrrrrrrr%      #rrrrrrr0rrrrrrrrrrrrr",
"rrrrrrrrrrrrrrrrrrrr#      #rrrrrrrrrrrrrrrrrrrrrr",
"rrrrrrrrrrrrrrrrrrr#      %rrrrrrrrrrrrrrrrrrrrrrr",
"rrrrrrrrrrrrrrrrrro      %rrrrrrrrrrrrrrrrrrrrrrrr",
"rrrrrrrrrrrrrrrrrX      *rrrrrrrrrrrrrrrrrrrrrrrrr",
"rrrrrrrrrrrrrrrro      *rrrrrrrrrrrrrrrrrrrrrrrrrr",
"rrrrrrrrrrrrrrrX      :rrrrrrrrrrrrrrrrrrrrrrrrrrr",
"rrrrrrrrrrrrrr       >rrrrrrrrrrrrrrrrrrrrrrrrrrrr",
"rrrrrrrrrrrrr       ,rrrrrrrrrrrrrrrrrrrrrrrrrrrrr",
"rrrrrrrrrrre       2rrrrrrrrrrrrrrrrrrrrrrrrrrrrrr",
"rrrrrrrrrrq       4rrrrrrrrrrrrrrrrrrrrrrrrrrrrrrr",
"rrrrrrrrr7       6rrrrrrrrrrrrrrrrrrrrrrrrrrrrrrrr",
"rrrrrrrr6       6rrrrrrrrrrrrrrrrrrrrrrrrrrrrrrrrr",
"rrrrrrr4       qrrrrrrrrrrrrrrrrrrrrrrrrrrrrrrrrrr",
"rrrrrr4       wrrrrrrrrrrrrrrrrrrrrrrrrrrrrrrrrrrr",
"rrrrr3       rrrrrrrrrrrrrrrrrrrrrrrrrrrrrrrrrrrrr",
"rrrrrr     Xrrrrrrrrrrrrrrrrrrrrrrrrrrrrrrrrrrrrrr",
"rrrrrrr    rrrrrrrrrrrrrrrrrrrrrrrrrrrrrrrrrrrrrrr",
"rrrrrrre Xrrrrrrrrrrrrrrrrrrrrrrrrrrrrrrrrrrrrrrrr",
"rrrrrrrrrrrrrrrrrrrrrrrrrrrrrrrrrrrrrrrrrrrrrrrrrr",
"rrrrrrrrrrrrrrrrrrrrrrrrrrrrrrrrrrrrrrrrrrrrrrrrrr",
"rrrrrrrrrrrrrrrrrrrrrrrrrrrrrrrrrrrrrrrrrrrrrrrrrr",
"rrrrrrrrrrrrrrrrrrrrrrrrrrrrrrrrrrrrrrrrrrrrrrrrrr",
"rrrrrrrrrrrrrrrrrrrrrrrrrrrrrrrrrrrrrrrrrrrrrrrrrr",
"rrrrrrrrrrrrrrrrrrrrrrrrrrrrrrrrrrrrrrrrrrrrrrrrrr"
};
