/* XPM */
static char *_4700f62c91f42f1f7a3b6bec2d64594[] = {
/* columns rows colors chars-per-pixel */
"50 50 33 1 ",
"  c black",
". c gray1",
"X c #060606",
"o c gray3",
"O c #0B0B0B",
"+ c gray5",
"@ c #101010",
"# c gray7",
"$ c #151515",
"% c gray10",
"& c gray12",
"* c #272727",
"= c #2C2C2C",
"- c gray18",
"; c #313131",
": c gray20",
"> c #393939",
", c gray25",
"< c #434343",
"1 c gray27",
"2 c #484848",
"3 c gray29",
"4 c #505050",
"5 c #5F5F5F",
"6 c gray38",
"7 c gray40",
"8 c #6C6C6C",
"9 c #717171",
"0 c gray45",
"q c #767676",
"w c gray47",
"e c gray49",
"r c None",
/* pixels */
"rrrrrrrrrrrrrrrrrrrrrrrrrrrrrrrrrrrrrrrrrrrrrrrrrr",
"rrrrrrrrrrrrrrrrrrrrrrrrrrrrrrrrrrrrrrrrrrrrrrrrrr",
"rrrrrrrrrrrrrrrrrrrrrrrrrrrrrrrrrrrrrrrrrrrrrrrrrr",
"rrrrrrrrrrrrrrrrrrrrrrrrrrrrrrrrrrrrrrrrrrrrrrrrrr",
"rrrrrrrrrrrrrrrrrrrrrrrrrrrrrrrrrrrrrrrrrrrrrrrrrr",
"rrrrrrrrrrrrrrrrrrrrrrrrrrrrrrrrrrrrrrrrrrrrrrrrrr",
"rrrrrrrrrrrrrrrrrrrrrrrrrrrrrrrrrrrrrrrrrrrrrrrrrr",
"rrrrrrrrrrrrrrrrrrrrrrrrrrrrrrrrrrrrrrrrrrrrrrrrrr",
"rrrrr2:rrrrrrrrrrrrrrrrrrrrrrrrrrrrrrrrrrrrrrrrrrr",
"rrrrrr   &9rrrrrrrrrrrrrrrrrrrrrrrrrrrrrrrrrrrrrrr",
"rrrrrr%     $6rrrrrrrrrrrrrrrrrrrrrrrrrrrrrrrrrrrr",
"rrrrrrr        O4rrrrrrrrrrrrrrrrrrrrrrrrrrrrrrrrr",
"rrrrrrrO           <rrrrrrrrrrrrrrrrrrrrrrrrrrrrrr",
"rrrrrrr7              -rrrrrrrrrrrrrrrrrrrrrrrrrrr",
"rrrrrrrr              +rrrrrrrrrrrrrrrrrrrrrrrrrrr",
"rrrrrrrr2            Xrrrrrrrrrrrrrrrrrrrrrrrrrrrr",
"rrrrrrrrr            rrrrrrrrrrrrrrrrrrrrrrrrrrrrr",
"rrrrrrrrr-          -rrrrrrrrrrrrrrrrrrrrrrrrrrrrr",
"rrrrrrrrrr           1rrrrrrrrrrrrrrrrrrrrrrrrrrrr",
"rrrrrrrrrr$           <rrrrrrrrrrrrrrrrrrrrrrrrrrr",
"rrrrrrrrrre            :rrrrrrrrrrrrrrrrrrrrrrrrrr",
"rrrrrrrrrrrO            :rrrrrrrrrrrrrrrrrrrrrrrrr",
"rrrrrrrrrrr5   @rrX      *rrrrrrrrrrrrrrrrrrrrrrrr",
"rrrrrrrrrrrr   rrrrO      *rrrrrrrrrrrrrrrrrrrrrrr",
"rrrrrrrrrrrr1 8rrrrr+      %rrrrrrrrrrrrrrrrrrrrrr",
"rrrrrrrrrrrrr9rrrrrrr@      %rrrrrrrrrrrrrrrrrrrrr",
"rrrrrrrrrrrrrrrrrrrrrr@      @rrrrrrrrrrrrrrrrrrrr",
"rrrrrrrrrrrrrrrrrrrrrrr%      @rrrrrrrrrrrrrrrrrrr",
"rrrrrrrrrrrrrrrrrrrrrrrr%      +rrrrrrrrrrrrrrrrrr",
"rrrrrrrrrrrrrrrrrrrrrrrrr*      Xrrrrrrrrrrrrrrrrr",
"rrrrrrrrrrrrrrrrrrrrrrrrrr*      Xrrrrrrrrrrrrrrrr",
"rrrrrrrrrrrrrrrrrrrrrrrrrrr:      Xrrrrrrrrrrrrrrr",
"rrrrrrrrrrrrrrrrrrrrrrrrrrrr>       rrrrrrrrrrrrrr",
"rrrrrrrrrrrrrrrrrrrrrrrrrrrrr<       rrrrrrrrrrrrr",
"rrrrrrrrrrrrrrrrrrrrrrrrrrrrrr2       errrrrrrrrrr",
"rrrrrrrrrrrrrrrrrrrrrrrrrrrrrrr4       0rrrrrrrrrr",
"rrrrrrrrrrrrrrrrrrrrrrrrrrrrrrrr6       7rrrrrrrrr",
"rrrrrrrrrrrrrrrrrrrrrrrrrrrrrrrrr6       6rrrrrrrr",
"rrrrrrrrrrrrrrrrrrrrrrrrrrrrrrrrrr0       4rrrrrrr",
"rrrrrrrrrrrrrrrrrrrrrrrrrrrrrrrrrrrw       4rrrrrr",
"rrrrrrrrrrrrrrrrrrrrrrrrrrrrrrrrrrrrr       3rrrrr",
"rrrrrrrrrrrrrrrrrrrrrrrrrrrrrrrrrrrrrr      rrrrrr",
"rrrrrrrrrrrrrrrrrrrrrrrrrrrrrrrrrrrrrrrX   rrrrrrr",
"rrrrrrrrrrrrrrrrrrrrrrrrrrrrrrrrrrrrrrrrO errrrrrr",
"rrrrrrrrrrrrrrrrrrrrrrrrrrrrrrrrrrrrrrrrrrrrrrrrrr",
"rrrrrrrrrrrrrrrrrrrrrrrrrrrrrrrrrrrrrrrrrrrrrrrrrr",
"rrrrrrrrrrrrrrrrrrrrrrrrrrrrrrrrrrrrrrrrrrrrrrrrrr",
"rrrrrrrrrrrrrrrrrrrrrrrrrrrrrrrrrrrrrrrrrrrrrrrrrr",
"rrrrrrrrrrrrrrrrrrrrrrrrrrrrrrrrrrrrrrrrrrrrrrrrrr",
"rrrrrrrrrrrrrrrrrrrrrrrrrrrrrrrrrrrrrrrrrrrrrrrrrr"
};
