/* XPM */
static char *_e00544cbd3c4d4bbcc61a5cb6912572[] = {
/* columns rows colors chars-per-pixel */
"64 64 3 1 ",
"  c black",
". c #8C3421",
"X c None",
/* pixels */
"XXXXXXXXXXXXXXXXX                              XXXXXXXXXXXXXXXXX",
"XXXXXXXXXXXXXXXX                                XXXXXXXXXXXXXXXX",
"XXXXXXXXXXXXXXX                                  XXXXXXXXXXXXXXX",
"XXXXXXXXXXXXXX      ........................      XXXXXXXXXXXXXX",
"XXXXXXXXXXXXX      ..........................      XXXXXXXXXXXXX",
"XXXXXXXXXXXX      ............................      XXXXXXXXXXXX",
"XXXXXXXXXXX      ..............................      XXXXXXXXXXX",
"XXXXXXXXXX      ................................      XXXXXXXXXX",
"XXXXXXXXX      ..................................      XXXXXXXXX",
"XXXXXXXX      ....................................      XXXXXXXX",
"XXXXXXX      ......................................      XXXXXXX",
"XXXXXX      ........................................      XXXXXX",
"XXXXX      ..........................................      XXXXX",
"XXXX      ............................................      XXXX",
"XXX      ..............................................      XXX",
"XX      ................................................      XX",
"X      ..................................................      X",
"      ....................................................      ",
"     ......................................................     ",
"    ........................................................    ",
"   ..........................................................   ",
"   ..........................................................   ",
"   ..........................................................   ",
"   ..........................................................   ",
"   ..........................................................   ",
"   ..........................................................   ",
"   ..........................................................   ",
"   ..........................................................   ",
"   ..........................................................   ",
"   ..........................................................   ",
"   ..........................................................   ",
"   ..........................................................   ",
"   ..........................................................   ",
"   ..........................................................   ",
"   ..........................................................   ",
"   ..........................................................   ",
"   ..........................................................   ",
"   ..........................................................   ",
"   ..........................................................   ",
"   ..........................................................   ",
"   ..........................................................   ",
"   ..........................................................   ",
"   ..........................................................   ",
"   ..........................................................   ",
"    ........................................................    ",
"     ......................................................     ",
"      ....................................................      ",
"X      ..................................................      X",
"XX      ................................................      XX",
"XXX      ..............................................      XXX",
"XXXX      ............................................      XXXX",
"XXXXX      ..........................................      XXXXX",
"XXXXXX      ........................................      XXXXXX",
"XXXXXXX      ......................................      XXXXXXX",
"XXXXXXXX      ....................................      XXXXXXXX",
"XXXXXXXXX      ..................................      XXXXXXXXX",
"XXXXXXXXXX      ................................      XXXXXXXXXX",
"XXXXXXXXXXX      ..............................      XXXXXXXXXXX",
"XXXXXXXXXXXX      ............................      XXXXXXXXXXXX",
"XXXXXXXXXXXXX      ..........................      XXXXXXXXXXXXX",
"XXXXXXXXXXXXXX      ........................      XXXXXXXXXXXXXX",
"XXXXXXXXXXXXXXX                                  XXXXXXXXXXXXXXX",
"XXXXXXXXXXXXXXXX                                XXXXXXXXXXXXXXXX",
"XXXXXXXXXXXXXXXXX                              XXXXXXXXXXXXXXXXX"
};
