/* XPM */
static char *d98c990ca1024cb5842dca1c99617961[] = {
/* columns rows colors chars-per-pixel */
"50 50 33 1 ",
"  c black",
". c gray1",
"X c #060606",
"o c gray3",
"O c #0B0B0B",
"+ c gray5",
"@ c #101010",
"# c gray7",
"$ c #151515",
"% c gray10",
"& c gray12",
"* c #272727",
"= c #2C2C2C",
"- c gray18",
"; c #313131",
": c gray20",
"> c #393939",
", c gray25",
"< c #434343",
"1 c gray27",
"2 c #484848",
"3 c gray29",
"4 c #505050",
"5 c #5F5F5F",
"6 c gray38",
"7 c gray40",
"8 c #6C6C6C",
"9 c #717171",
"0 c gray45",
"q c #767676",
"w c gray47",
"e c gray49",
"r c None",
/* pixels */
"rrrrrrrrrrrrrrrrrrrrrrrrrrrrrrrrrrrrrrrrrrrrrrrrrr",
"rrrrrrrrrrrrrrrrrrrrrrrrrrrrrrrrrrrrrrrrrrrrrrrrrr",
"rrrrrrrrrrrrrrrrrrrrrrrrrrrrrrrrrrrrrrrrrrrrrrrrrr",
"rrrrrrrrrrrrrrrrrrrrrrrrrrrrrrrrrrrrrrrrrrrrrrrrrr",
"rrrrrrrrrrrrrrrrrrrrrrrrrrrrrrrrrrrrrrrrrrrrrrrrrr",
"rrrrrrrrrrrrrrrrrrrrrrrrrrrrrrrrrrrrrrrrrrrrrrrrrr",
"rrrrrrre orrrrrrrrrrrrrrrrrrrrrrrrrrrrrrrrrrrrrrrr",
"rrrrrrr    rrrrrrrrrrrrrrrrrrrrrrrrrrrrrrrrrrrrrrr",
"rrrrrr     Xrrrrrrrrrrrrrrrrrrrrrrrrrrrrrrrrrrrrrr",
"rrrrr3       rrrrrrrrrrrrrrrrrrrrrrrrrrrrrrrrrrrrr",
"rrrrrr4       wrrrrrrrrrrrrrrrrrrrrrrrrrrrrrrrrrrr",
"rrrrrrr4       0rrrrrrrrrrrrrrrrrrrrrrrrrrrrrrrrrr",
"rrrrrrrr6       6rrrrrrrrrrrrrrrrrrrrrrrrrrrrrrrrr",
"rrrrrrrrr7       6rrrrrrrrrrrrrrrrrrrrrrrrrrrrrrrr",
"rrrrrrrrrrq       4rrrrrrrrrrrrrrrrrrrrrrrrrrrrrrr",
"rrrrrrrrrrre       3rrrrrrrrrrrrrrrrrrrrrrrrrrrrrr",
"rrrrrrrrrrrrr       ,rrrrrrrrrrrrrrrrrrrrrrrrrrrrr",
"rrrrrrrrrrrrrr       >rrrrrrrrrrrrrrrrrrrrrrrrrrrr",
"rrrrrrrrrrrrrrrX      ;rrrrrrrrrrrrrrrrrrrrrrrrrrr",
"rrrrrrrrrrrrrrrrX      *rrrrrrrrrrrrrrrrrrrrrrrrrr",
"rrrrrrrrrrrrrrrrrX      *rrrrrrrrrrrrrrrrrrrrrrrrr",
"rrrrrrrrrrrrrrrrrro      %rrrrrrrrrrrrrrrrrrrrrrrr",
"rrrrrrrrrrrrrrrrrrr@      %rrrrrrrrrrrrrrrrrrrrrrr",
"rrrrrrrrrrrrrrrrrrrr$      @rrrrrrrrrrrrrrrrrrrrrr",
"rrrrrrrrrrrrrrrrrrrrr%      @rrrrrrr0rrrrrrrrrrrrr",
"rrrrrrrrrrrrrrrrrrrrrr%      +rrrrr8 ,rrrrrrrrrrrr",
"rrrrrrrrrrrrrrrrrrrrrrr*      +rrrr   rrrrrrrrrrrr",
"rrrrrrrrrrrrrrrrrrrrrrrr*      Xrr@   6rrrrrrrrrrr",
"rrrrrrrrrrrrrrrrrrrrrrrrr;            orrrrrrrrrrr",
"rrrrrrrrrrrrrrrrrrrrrrrrrr;            errrrrrrrrr",
"rrrrrrrrrrrrrrrrrrrrrrrrrrr,           $rrrrrrrrrr",
"rrrrrrrrrrrrrrrrrrrrrrrrrrrr1           rrrrrrrrrr",
"rrrrrrrrrrrrrrrrrrrrrrrrrrrrr=          =rrrrrrrrr",
"rrrrrrrrrrrrrrrrrrrrrrrrrrrrrX           rrrrrrrrr",
"rrrrrrrrrrrrrrrrrrrrrrrrrrrro            3rrrrrrrr",
"rrrrrrrrrrrrrrrrrrrrrrrrrrr+              rrrrrrrr",
"rrrrrrrrrrrrrrrrrrrrrrrrrrr;              7rrrrrrr",
"rrrrrrrrrrrrrrrrrrrrrrrrrrrrrr,           +rrrrrrr",
"rrrrrrrrrrrrrrrrrrrrrrrrrrrrrrrrr4o        rrrrrrr",
"rrrrrrrrrrrrrrrrrrrrrrrrrrrrrrrrrrrr6$     %rrrrrr",
"rrrrrrrrrrrrrrrrrrrrrrrrrrrrrrrrrrrrrrr0&   rrrrrr",
"rrrrrrrrrrrrrrrrrrrrrrrrrrrrrrrrrrrrrrrrrrr;3rrrrr",
"rrrrrrrrrrrrrrrrrrrrrrrrrrrrrrrrrrrrrrrrrrrrrrrrrr",
"rrrrrrrrrrrrrrrrrrrrrrrrrrrrrrrrrrrrrrrrrrrrrrrrrr",
"rrrrrrrrrrrrrrrrrrrrrrrrrrrrrrrrrrrrrrrrrrrrrrrrrr",
"rrrrrrrrrrrrrrrrrrrrrrrrrrrrrrrrrrrrrrrrrrrrrrrrrr",
"rrrrrrrrrrrrrrrrrrrrrrrrrrrrrrrrrrrrrrrrrrrrrrrrrr",
"rrrrrrrrrrrrrrrrrrrrrrrrrrrrrrrrrrrrrrrrrrrrrrrrrr",
"rrrrrrrrrrrrrrrrrrrrrrrrrrrrrrrrrrrrrrrrrrrrrrrrrr",
"rrrrrrrrrrrrrrrrrrrrrrrrrrrrrrrrrrrrrrrrrrrrrrrrrr"
};
