/* XPM */
static char *_84370b1a7cc4173eeef304b8fa0db94[] = {
/* columns rows colors chars-per-pixel */
"50 50 33 1 ",
"  c black",
". c gray1",
"X c #060606",
"o c gray3",
"O c #0B0B0B",
"+ c gray5",
"@ c #101010",
"# c gray7",
"$ c #151515",
"% c gray10",
"& c gray12",
"* c #272727",
"= c #2C2C2C",
"- c gray18",
"; c #313131",
": c gray20",
"> c #393939",
", c gray25",
"< c #434343",
"1 c gray27",
"2 c #484848",
"3 c gray29",
"4 c #505050",
"5 c #5F5F5F",
"6 c gray38",
"7 c gray40",
"8 c #6C6C6C",
"9 c #717171",
"0 c gray45",
"q c #767676",
"w c gray47",
"e c gray49",
"r c None",
/* pixels */
"rrrrrrrrrrrrrrrrrrrrrrrrrrrrrrrrrrrrrrrrrrrrrrrrrr",
"rrrrrrrrrrrrrrrrrrrrrrrrrrrrrrrrrrrrrrrrrrrrrrrrrr",
"rrrrrrrrrrrrrrrrrrrrrrrrrrrrrrrrrrrrrrrrrrrrrrrrrr",
"rrrrrrrrrrrrrrrrrrrrrrrrrrrrrrrrrrrrrrrrrrrrrrrrrr",
"rrrrrrrrrrrrrrrrrrrrrrrrrrrrrrrrrrrrrrrrrrrrrrrrrr",
"rrrrrrrrrrrrrrrrrrrrrrrrrrrrrrrrrrrrrrrrrrrrrrrrrr",
"rrrrrrrrrrrrrrrrrrrrrrrrrrrrrrrrrrrrrrrrX errrrrrr",
"rrrrrrrrrrrrrrrrrrrrrrrrrrrrrrrrrrrrrrrX   rrrrrrr",
"rrrrrrrrrrrrrrrrrrrrrrrrrrrrrrrrrrrrrr     Xrrrrrr",
"rrrrrrrrrrrrrrrrrrrrrrrrrrrrrrrrrrrrr       3rrrrr",
"rrrrrrrrrrrrrrrrrrrrrrrrrrrrrrrrrrrw       4rrrrrr",
"rrrrrrrrrrrrrrrrrrrrrrrrrrrrrrrrrr0       4rrrrrrr",
"rrrrrrrrrrrrrrrrrrrrrrrrrrrrrrrrr6       6rrrrrrrr",
"rrrrrrrrrrrrrrrrrrrrrrrrrrrrrrrr5       7rrrrrrrrr",
"rrrrrrrrrrrrrrrrrrrrrrrrrrrrrrr4       qrrrrrrrrrr",
"rrrrrrrrrrrrrrrrrrrrrrrrrrrrrr2       errrrrrrrrrr",
"rrrrrrrrrrrrrrrrrrrrrrrrrrrrr,       rrrrrrrrrrrrr",
"rrrrrrrrrrrrrrrrrrrrrrrrrrrr>       rrrrrrrrrrrrrr",
"rrrrrrrrrrrrrrrrrrrrrrrrrrr;       rrrrrrrrrrrrrrr",
"rrrrrrrrrrrrrrrrrrrrrrrrrr*      Orrrrrrrrrrrrrrrr",
"rrrrrrrrrrrrrrrrrrrrrrrrr*      Xrrrrrrrrrrrrrrrrr",
"rrrrrrrrrrrrrrrrrrrrrrrr%      Orrrrrrrrrrrrrrrrrr",
"rrrrrrrrrrrrrrrrrrrrrrr%      #rrrrrrrrrrrrrrrrrrr",
"rrrrrrrrrrrrrrrrrrrrrr#      #rrrrrrrrrrrrrrrrrrrr",
"rrrrrrrrrrrrr0rrrrrrr#      %rrrrrrrrrrrrrrrrrrrrr",
"rrrrrrrrrrrr, 8rrrrr+      %rrrrrrrrrrrrrrrrrrrrrr",
"rrrrrrrrrrrr   rrrrO      *rrrrrrrrrrrrrrrrrrrrrrr",
"rrrrrrrrrrr5   #rrX      *rrrrrrrrrrrrrrrrrrrrrrrr",
"rrrrrrrrrrrO            ;rrrrrrrrrrrrrrrrrrrrrrrrr",
"rrrrrrrrrre            ;rrrrrrrrrrrrrrrrrrrrrrrrrr",
"rrrrrrrrrr$           ,rrrrrrrrrrrrrrrrrrrrrrrrrrr",
"rrrrrrrrrr           1rrrrrrrrrrrrrrrrrrrrrrrrrrrr",
"rrrrrrrrr=          =rrrrrrrrrrrrrrrrrrrrrrrrrrrrr",
"rrrrrrrrr           Xrrrrrrrrrrrrrrrrrrrrrrrrrrrrr",
"rrrrrrrr2            Xrrrrrrrrrrrrrrrrrrrrrrrrrrrr",
"rrrrrrrr              +rrrrrrrrrrrrrrrrrrrrrrrrrrr",
"rrrrrrr7              =rrrrrrrrrrrrrrrrrrrrrrrrrrr",
"rrrrrrr+          X,rrrrrrrrrrrrrrrrrrrrrrrrrrrrrr",
"rrrrrrr        O4rrrrrrrrrrrrrrrrrrrrrrrrrrrrrrrrr",
"rrrrrr%     $6rrrrrrrrrrrrrrrrrrrrrrrrrrrrrrrrrrrr",
"rrrrrr   &0rrrrrrrrrrrrrrrrrrrrrrrrrrrrrrrrrrrrrrr",
"rrrrr2;rrrrrrrrrrrrrrrrrrrrrrrrrrrrrrrrrrrrrrrrrrr",
"rrrrrrrrrrrrrrrrrrrrrrrrrrrrrrrrrrrrrrrrrrrrrrrrrr",
"rrrrrrrrrrrrrrrrrrrrrrrrrrrrrrrrrrrrrrrrrrrrrrrrrr",
"rrrrrrrrrrrrrrrrrrrrrrrrrrrrrrrrrrrrrrrrrrrrrrrrrr",
"rrrrrrrrrrrrrrrrrrrrrrrrrrrrrrrrrrrrrrrrrrrrrrrrrr",
"rrrrrrrrrrrrrrrrrrrrrrrrrrrrrrrrrrrrrrrrrrrrrrrrrr",
"rrrrrrrrrrrrrrrrrrrrrrrrrrrrrrrrrrrrrrrrrrrrrrrrrr",
"rrrrrrrrrrrrrrrrrrrrrrrrrrrrrrrrrrrrrrrrrrrrrrrrrr",
"rrrrrrrrrrrrrrrrrrrrrrrrrrrrrrrrrrrrrrrrrrrrrrrrrr"
};
