/* XPM */
static char *_f9146681919421fb978d9170cbcbd0c[] = {
/* columns rows colors chars-per-pixel */
"50 50 2 1 ",
"  c black",
". c None",
/* pixels */
"..................................................",
"..................................................",
"..................................................",
"..................................................",
"..................................................",
"......................        ....................",
"...................               ................",
".................                   ..............",
"...............                      .............",
"..............                         ...........",
"....  ......                            ..........",
"....    ...             ....             .........",
"....      .          ...........          ........",
"....               ...............         .......",
"....             ..................        .......",
"....            ....................        ......",
"....            .....................       ......",
"....              ....................       .....",
"....                ..................       .....",
"....                 ..................       ....",
"....               ....................       ....",
"....             .......................      ....",
"....           .........................      ....",
"....          ..........................      ....",
"....        ............................       ...",
"....      ..............................       ...",
"....     ...............................       ...",
"....   .................................      ....",
".... ...................................      ....",
"........................................      ....",
".......................................       ....",
".......................................       ....",
"......................................       .....",
"......................................       .....",
".....................................       ......",
"....................................        ......",
"...................................        .......",
".................................          .......",
"...............................           ........",
"..........................               .........",
"..........................              ..........",
"..........................             ...........",
"..........................           .............",
"..........................          ..............",
"..........................       .................",
"..........................   .....................",
"..................................................",
"..................................................",
"..................................................",
".................................................."
};
